<?xml version="1.0" encoding="UTF-8"?>
<svg version="1.1" xmlns="http://www.w3.org/2000/svg" width="600" height="600">
<path d="M0 0 C0.7213916 0.17128418 1.4427832 0.34256836 2.18603516 0.51904297 C33.4098638 8.02400848 61.48958351 25.540046 85 47 C85.81855469 47.74636719 86.63710938 48.49273437 87.48046875 49.26171875 C97.7498892 59.09491603 105.95643835 70.70287274 113 83 C113.64453125 84.07894531 114.2890625 85.15789062 114.953125 86.26953125 C124.80175822 103.25520703 130.94901588 122.65799515 134 142 C134.1743457 143.08587402 134.34869141 144.17174805 134.52832031 145.29052734 C135.36010316 151.83199139 135.24474369 158.41500696 135.25 165 C135.25067474 165.75710266 135.25134949 166.51420532 135.25204468 167.29425049 C135.18994637 211.2935101 120.56904331 249.24007039 98.78417969 286.9140625 C96.94518076 290.09481597 95.11634478 293.2812529 93.2890625 296.46875 C87.44700318 306.64419252 81.55336143 316.78644882 75.5625 326.875 C70.59297242 335.24980269 65.71106344 343.67267113 60.875 352.125 C60.25439697 353.20765137 59.63379395 354.29030273 58.99438477 355.40576172 C57.35960759 358.27050196 55.73714964 361.14178091 54.12121582 364.0171814 C53.33170788 365.41338987 52.5361385 366.80617946 51.73620605 368.19644165 C44.23980301 381.22824895 38.1104125 394.49882058 32.5 408.4375 C31.66907833 410.47914235 30.83760974 412.52056219 30.00561523 414.56176758 C27.64715866 420.36530081 25.31582324 426.17933464 23 432 C22.69991028 432.75418213 22.39982056 433.50836426 22.09063721 434.28540039 C5.47456882 476.15794169 -7.30288156 518.96626845 -18.5546875 562.54296875 C-18.86946297 563.75839104 -18.86946297 563.75839104 -19.19059753 564.99836731 C-20.17061631 568.78258893 -21.14446677 572.56806996 -22.10253906 576.35791016 C-22.44572555 577.69309505 -22.78913644 579.02822229 -23.1328125 580.36328125 C-23.4230127 581.50708252 -23.71321289 582.65088379 -24.01220703 583.8293457 C-25.46177816 588.48223257 -26.65350479 592.08193508 -30.75 594.875 C-35.01158734 596.35016485 -38.72512366 596.78840125 -43.05056763 595.28933716 C-49.53442037 591.00097487 -51.24731731 579.21824249 -52.9453125 572.0703125 C-53.19675522 571.05436508 -53.44819794 570.03841766 -53.70726013 568.99168396 C-54.2433326 566.82554863 -54.77524019 564.65837888 -55.30325317 562.49026489 C-56.70545771 556.74787616 -58.14992216 551.01621054 -59.59765625 545.28515625 C-59.88634079 544.14209518 -60.17502533 542.99903412 -60.47245789 541.82133484 C-64.4786106 526.060565 -69.10315746 510.50434326 -74 495 C-74.22755981 494.275849 -74.45511963 493.551698 -74.6895752 492.80560303 C-82.67258405 467.43249304 -91.98739453 442.63797856 -102 418 C-102.32202393 417.20601807 -102.64404785 416.41203613 -102.97583008 415.59399414 C-114.58037841 387.03871659 -128.55020169 360.48190397 -144.26171875 333.94433594 C-147.21908338 328.93509192 -150.13779422 323.90335628 -153.0625 318.875 C-156.45333694 313.04947425 -159.85387523 307.23090988 -163.3125 301.4453125 C-194.34310346 249.50944164 -220.82101831 190.93107963 -206.3125 128.90234375 C-205.88631119 127.26524271 -205.4486996 125.63107492 -205 124 C-204.76925781 123.15195801 -204.53851563 122.30391602 -204.30078125 121.43017578 C-198.99792263 102.65623255 -190.85020037 83.59623479 -179 68 C-178.35546875 67.14792969 -177.7109375 66.29585938 -177.046875 65.41796875 C-172.31750414 59.35729861 -167.2295369 53.63109062 -162 48 C-161.4225 47.35675781 -160.845 46.71351562 -160.25 46.05078125 C-120.7537798 3.99788608 -55.45929189 -14.12097918 0 0 Z " fill="#FE4545" transform="translate(337,4)"/>
<path d="M0 0 C0.7213916 0.17128418 1.4427832 0.34256836 2.18603516 0.51904297 C33.4098638 8.02400848 61.48958351 25.540046 85 47 C85.81855469 47.74636719 86.63710938 48.49273437 87.48046875 49.26171875 C97.7498892 59.09491603 105.95643835 70.70287274 113 83 C113.64453125 84.07894531 114.2890625 85.15789062 114.953125 86.26953125 C124.80175822 103.25520703 130.94901588 122.65799515 134 142 C134.1743457 143.08587402 134.34869141 144.17174805 134.52832031 145.29052734 C135.36010316 151.83199139 135.24474369 158.41500696 135.25 165 C135.25067474 165.75710266 135.25134949 166.51420532 135.25204468 167.29425049 C135.18994637 211.2935101 120.56904331 249.24007039 98.78417969 286.9140625 C96.94518076 290.09481597 95.11634478 293.2812529 93.2890625 296.46875 C87.44700318 306.64419252 81.55336143 316.78644882 75.5625 326.875 C70.59297242 335.24980269 65.71106344 343.67267113 60.875 352.125 C60.25439697 353.20765137 59.63379395 354.29030273 58.99438477 355.40576172 C57.35960759 358.27050196 55.73714964 361.14178091 54.12121582 364.0171814 C53.33170788 365.41338987 52.5361385 366.80617946 51.73620605 368.19644165 C44.23980301 381.22824895 38.1104125 394.49882058 32.5 408.4375 C31.66907833 410.47914235 30.83760974 412.52056219 30.00561523 414.56176758 C27.64715866 420.36530081 25.31582324 426.17933464 23 432 C22.69991028 432.75418213 22.39982056 433.50836426 22.09063721 434.28540039 C5.47456882 476.15794169 -7.30288156 518.96626845 -18.5546875 562.54296875 C-18.86946297 563.75839104 -18.86946297 563.75839104 -19.19059753 564.99836731 C-20.17061631 568.78258893 -21.14446677 572.56806996 -22.10253906 576.35791016 C-22.44572555 577.69309505 -22.78913644 579.02822229 -23.1328125 580.36328125 C-23.4230127 581.50708252 -23.71321289 582.65088379 -24.01220703 583.8293457 C-25.46177816 588.48223257 -26.65350479 592.08193508 -30.75 594.875 C-35.01158734 596.35016485 -38.72512366 596.78840125 -43.05056763 595.28933716 C-49.53442037 591.00097487 -51.24731731 579.21824249 -52.9453125 572.0703125 C-53.19675522 571.05436508 -53.44819794 570.03841766 -53.70726013 568.99168396 C-54.2433326 566.82554863 -54.77524019 564.65837888 -55.30325317 562.49026489 C-56.70545771 556.74787616 -58.14992216 551.01621054 -59.59765625 545.28515625 C-59.88634079 544.14209518 -60.17502533 542.99903412 -60.47245789 541.82133484 C-64.4786106 526.060565 -69.10315746 510.50434326 -74 495 C-74.22755981 494.275849 -74.45511963 493.551698 -74.6895752 492.80560303 C-82.67258405 467.43249304 -91.98739453 442.63797856 -102 418 C-102.32202393 417.20601807 -102.64404785 416.41203613 -102.97583008 415.59399414 C-114.58037841 387.03871659 -128.55020169 360.48190397 -144.26171875 333.94433594 C-147.21908338 328.93509192 -150.13779422 323.90335628 -153.0625 318.875 C-156.45333694 313.04947425 -159.85387523 307.23090988 -163.3125 301.4453125 C-194.34310346 249.50944164 -220.82101831 190.93107963 -206.3125 128.90234375 C-205.88631119 127.26524271 -205.4486996 125.63107492 -205 124 C-204.76925781 123.15195801 -204.53851563 122.30391602 -204.30078125 121.43017578 C-198.99792263 102.65623255 -190.85020037 83.59623479 -179 68 C-178.35546875 67.14792969 -177.7109375 66.29585938 -177.046875 65.41796875 C-172.31750414 59.35729861 -167.2295369 53.63109062 -162 48 C-161.4225 47.35675781 -160.845 46.71351562 -160.25 46.05078125 C-120.7537798 3.99788608 -55.45929189 -14.12097918 0 0 Z M-78 21 C-78.76554199 21.23074219 -79.53108398 21.46148438 -80.31982422 21.69921875 C-104.53977526 29.26388844 -125.74702986 42.50504357 -144 60 C-144.87914062 60.81597656 -145.75828125 61.63195312 -146.6640625 62.47265625 C-164.33592748 79.37293276 -176.72231743 101.2994637 -183.75 124.625 C-183.94883789 125.28105225 -184.14767578 125.93710449 -184.35253906 126.61303711 C-187.60953752 137.98878857 -188.32270522 149.07817935 -188.26074219 160.83447266 C-188.25007846 163.23235726 -188.26066463 165.62948261 -188.2734375 168.02734375 C-188.28635947 181.17633136 -187.4498228 194.26046529 -183.9375 207 C-183.72762451 207.77287354 -183.51774902 208.54574707 -183.30151367 209.34204102 C-176.26686545 234.2099028 -164.86476123 256.46873004 -151.76953125 278.6015625 C-147.79686064 285.31942235 -143.92356962 292.09268104 -140.0625 298.875 C-136.09963305 305.83295554 -132.13155412 312.7870144 -128.109375 319.7109375 C-120.37597764 333.02396524 -112.82918207 346.41575027 -105.6027832 360.01171875 C-104.47048257 362.12281695 -103.31863425 364.22348611 -102.15307617 366.31640625 C-96.37315666 376.76293193 -91.73633563 387.59634152 -87.1875 398.625 C-86.79404388 399.57351837 -86.40058777 400.52203674 -85.99520874 401.4992981 C-79.33931035 417.54744418 -72.83492428 433.63180847 -67 450 C-66.72218689 450.77865417 -66.44437378 451.55730835 -66.15814209 452.35955811 C-58.74044069 473.20429562 -51.71989585 494.12848962 -45.75 515.4375 C-45.41295044 516.6404068 -45.41295044 516.6404068 -45.0690918 517.86761475 C-42.68497488 526.42620467 -40.46852366 534.96943971 -38.68457031 543.67602539 C-38.45866211 544.44293701 -38.23275391 545.20984863 -38 546 C-37.34 546.33 -36.68 546.66 -36 547 C-35.79246094 546.05125 -35.58492187 545.1025 -35.37109375 544.125 C-32.48537322 531.24439879 -28.84009863 518.6250271 -25 506 C-24.69032288 504.97851868 -24.69032288 504.97851868 -24.37438965 503.93640137 C-14.31609885 470.78835881 -2.51754972 438.48957206 10.73678589 406.49160767 C12.39418767 402.48666006 14.01595413 398.4691051 15.6171875 394.44140625 C20.70140648 381.7529816 26.58167935 369.82567667 33.33447266 357.94580078 C35.11436035 354.79773204 36.86267985 351.63359301 38.60546875 348.46484375 C47.40436706 332.48167139 56.52030501 316.7017177 65.77783203 300.98095703 C77.14287242 281.66690396 88.35249654 262.24247982 98 242 C98.51949219 240.9275 99.03898437 239.855 99.57421875 238.75 C116.36451701 202.08457178 120.67988601 156.05387914 106.828125 117.8359375 C99.60236231 99.02596879 89.78943403 82.67131644 76 68 C75.50886719 67.47180664 75.01773437 66.94361328 74.51171875 66.39941406 C49.00307361 39.19131434 10.86766574 18.57599857 -26.80371094 16.82299805 C-52.69092361 16.21289203 -52.69092361 16.21289203 -78 21 Z " fill="#D73433" transform="translate(337,4)"/>
<path d="M0 0 C14.61321216 9.97975465 23.95340406 24.20602506 27.48828125 41.4921875 C29.92373849 58.18715394 26.60509332 73.92995401 17 88 C7.0895311 100.70188641 -6.3483303 110.74077327 -22.5 113.625 C-40.98882125 115.57305588 -57.98365003 112.31666954 -73 101 C-85.93866609 90.09619831 -94.04237211 75.83194073 -96 59 C-97.08696875 40.22888578 -92.54817027 24.48412671 -80.375 10.125 C-59.10594257 -11.8312116 -26.14699397 -15.81303614 0 0 Z " fill="#590000" transform="translate(334,119)"/>
</svg>
